<?xml version="1.0" standalone="no"?>
<!DOCTYPE svg PUBLIC "-//W3C//DTD SVG 20010904//EN"
 "http://www.w3.org/TR/2001/REC-SVG-20010904/DTD/svg10.dtd">
<svg version="1.0" xmlns="http://www.w3.org/2000/svg"
 width="1000.000000pt" height="1000.000000pt" viewBox="0 0 1000.000000 1000.000000"
 preserveAspectRatio="xMidYMid meet">

<g transform="translate(0.000000,1000.000000) scale(0.100000,-0.100000)"
fill="#ffffff" stroke="none">
<path d="M5113 9203 c-11 -10 -60 -67 -109 -128 -49 -60 -196 -240 -327 -398
-131 -158 -242 -300 -248 -315 -8 -18 -9 -140 -4 -383 6 -293 5 -360 -6 -380
-14 -24 -352 -359 -557 -551 -80 -74 -113 -112 -110 -125 3 -17 49 -18 1384
-18 1486 0 1430 -2 1401 49 -6 12 -156 161 -331 331 -190 184 -324 323 -333
342 -10 25 -13 109 -13 371 l0 338 -122 165 c-68 92 -172 235 -233 320 -128
178 -268 357 -298 381 -28 23 -70 23 -94 1z"/>
<path d="M4120 6640 c-416 -6 -430 -8 -523 -76 -54 -39 -88 -88 -114 -165 -17
-51 -18 -123 -21 -1229 -2 -849 0 -1186 8 -1213 17 -57 80 -120 153 -152 l62
-28 1480 -1 1480 -1 41 22 c22 12 55 38 72 57 65 74 62 16 62 1341 0 1345 4
1269 -71 1350 -56 61 -118 84 -252 95 -118 10 -1734 10 -2377 0z m1248 -471
c218 -50 418 -180 554 -359 65 -84 141 -243 170 -350 31 -119 32 -357 0 -471
-98 -360 -371 -629 -724 -714 -93 -23 -251 -30 -349 -16 -384 54 -690 319
-806 698 -25 81 -27 102 -27 263 -1 195 11 257 80 408 66 145 188 292 320 388
221 159 511 216 782 153z"/>
<path d="M5075 5866 c-13 -13 -27 -39 -30 -57 -3 -19 -5 -185 -3 -369 4 -464
-22 -435 392 -431 153 1 289 6 302 11 49 19 60 92 18 131 -25 24 -28 24 -254
27 l-229 3 -3 312 c-3 339 -6 355 -59 383 -44 23 -106 18 -134 -10z"/>
<path d="M3787 3509 c-21 -3 -48 -16 -60 -28 -21 -20 -22 -33 -25 -186 -4
-182 0 -199 53 -221 35 -14 52 -15 2053 -14 l724 0 29 29 29 30 -2 177 -3 177
-28 21 -28 21 -1352 0 c-744 1 -1369 -2 -1390 -6z"/>
<path d="M840 1930 l0 -770 155 0 155 0 0 770 0 770 -155 0 -155 0 0 -770z"/>
<path d="M6146 2675 c-21 -7 -54 -28 -72 -46 -116 -113 -33 -312 131 -312 168
0 249 205 125 317 -35 32 -93 56 -130 56 -8 -1 -32 -7 -54 -15z"/>
<path d="M5493 2461 l-153 -45 0 -103 0 -103 -80 0 -80 0 0 -145 0 -145 79 0
78 0 6 -242 c2 -134 10 -267 17 -296 19 -85 64 -141 144 -182 68 -35 71 -35
217 -39 l149 -3 0 140 0 139 -76 5 c-87 6 -123 26 -136 76 -5 17 -7 114 -6
214 l3 183 108 3 107 3 0 144 0 144 -107 3 -108 3 -5 146 -5 145 -152 -45z"/>
<path d="M1698 2221 c-162 -53 -297 -204 -343 -386 -19 -75 -19 -211 0 -294
62 -260 304 -437 552 -401 86 12 134 31 201 81 l52 40 0 -51 0 -50 155 0 155
0 0 525 0 525 -155 0 -155 0 0 -45 c0 -25 -4 -45 -8 -45 -5 0 -21 13 -36 29
-15 16 -56 42 -89 57 -82 37 -240 45 -329 15z m293 -286 c104 -36 162 -121
163 -240 1 -93 -22 -153 -80 -203 -55 -49 -114 -66 -200 -59 -130 10 -212 94
-222 227 -7 101 11 154 73 216 71 71 167 93 266 59z"/>
<path d="M3185 2227 c-57 -19 -100 -43 -140 -78 l-35 -31 0 46 0 46 -155 0
-155 0 0 -525 0 -525 155 0 155 0 0 313 c0 197 4 327 11 352 33 117 193 171
300 101 71 -48 74 -60 77 -433 l3 -333 155 0 154 0 0 348 c0 386 -6 440 -61
542 -39 73 -92 123 -168 158 -46 22 -73 27 -156 29 -63 2 -115 -2 -140 -10z"/>
<path d="M4267 2226 c-138 -40 -260 -142 -320 -267 -78 -164 -78 -334 0 -498
63 -133 199 -241 343 -272 29 -6 94 -9 144 -7 105 4 176 32 239 93 20 19 39
35 43 35 12 0 -4 -166 -19 -202 -18 -42 -74 -92 -124 -109 -21 -8 -70 -13
-109 -13 -87 0 -169 35 -205 89 -13 19 -27 35 -31 35 -5 0 -244 -136 -257
-146 -8 -6 42 -74 79 -108 59 -53 111 -83 197 -113 69 -23 94 -27 208 -27 109
-1 142 3 205 22 172 54 276 149 332 304 23 62 23 69 26 616 l3 552 -150 0
-151 0 0 -50 c0 -27 -3 -50 -7 -50 -5 0 -24 16 -43 36 -19 19 -60 47 -90 61
-47 23 -70 27 -160 30 -67 1 -123 -3 -153 -11z m322 -300 c81 -42 124 -116
124 -216 0 -100 -43 -174 -125 -216 -103 -52 -230 -38 -310 34 -53 48 -78 102
-78 172 0 81 17 128 64 177 79 85 214 105 325 49z"/>
<path d="M7075 2227 c-59 -20 -86 -35 -127 -75 l-38 -36 0 47 0 47 -155 0
-155 0 0 -525 0 -525 155 0 154 0 3 338 c3 317 4 339 24 377 40 79 163 109
232 58 60 -44 62 -55 62 -430 l0 -343 155 0 155 0 0 299 c0 307 7 388 38 430
50 68 130 88 204 52 83 -40 83 -38 86 -433 l3 -348 155 0 155 0 -3 383 c-4
365 -5 385 -26 442 -44 119 -136 208 -250 241 -41 12 -81 15 -151 11 -113 -5
-169 -26 -235 -87 l-45 -42 -32 37 c-55 63 -119 88 -229 92 -59 2 -110 -2
-135 -10z"/>
<path d="M8760 2224 c-129 -34 -232 -106 -304 -212 -63 -92 -87 -166 -93 -284
-10 -180 39 -320 150 -432 107 -106 246 -159 422 -159 115 -1 184 13 273 55
72 34 193 141 177 156 -5 6 -61 40 -123 76 l-113 66 -39 -29 c-79 -57 -222
-66 -317 -20 -43 21 -103 88 -103 116 0 11 67 13 374 13 l374 0 6 31 c20 102
-8 263 -66 372 -64 120 -188 216 -323 252 -74 19 -222 19 -295 -1z m224 -265
c24 -6 60 -24 80 -41 39 -32 81 -102 71 -118 -8 -13 -442 -13 -450 0 -3 5 2
24 11 42 52 104 163 149 288 117z"/>
<path d="M6050 1685 l0 -525 155 0 155 0 0 525 0 525 -155 0 -155 0 0 -525z"/>
</g>
</svg>
